<?xml version="1.0" standalone="no"?>
<!DOCTYPE svg PUBLIC "-//W3C//DTD SVG 20010904//EN"
 "http://www.w3.org/TR/2001/REC-SVG-20010904/DTD/svg10.dtd">
<svg version="1.0" xmlns="http://www.w3.org/2000/svg"
 width="64.000000pt" height="64.000000pt" viewBox="0 0 64.000000 64.000000"
 preserveAspectRatio="xMidYMid meet">

<g transform="translate(0.000000,64.000000) scale(0.100000,-0.100000)"
fill="#000000" stroke="none">
<path d="M89 565 c-49 -27 -59 -67 -59 -239 0 -172 8 -207 55 -244 26 -21 38
-22 207 -22 149 0 183 3 204 16 30 20 54 64 54 99 0 15 6 25 14 25 42 0 62
102 28 133 -10 10 -24 17 -30 17 -7 0 -12 15 -12 34 0 44 -38 91 -87 107 -20
6 -53 29 -73 50 l-37 39 -119 0 c-83 -1 -127 -5 -145 -15z m262 -35 c41 -22
17 -30 -91 -30 -76 0 -122 -5 -147 -15 -44 -19 -42 -19 -36 5 11 40 41 50 151
50 57 0 112 -5 123 -10z m135 -103 c34 -39 31 -70 -6 -84 -63 -24 -64 -104 -3
-133 39 -18 43 -45 12 -84 l-20 -26 -170 0 c-94 0 -179 4 -189 10 -28 15 -40
65 -40 165 0 176 13 186 238 182 l154 -2 24 -28z m82 -149 c-3 -31 -5 -33 -42
-33 -25 0 -42 6 -49 17 -17 26 9 48 55 48 38 0 39 -1 36 -32z"/>
<path d="M172 343 c3 -15 17 -18 92 -21 63 -2 92 1 97 10 15 23 -2 28 -97 28
-86 0 -95 -2 -92 -17z"/>
</g>
</svg>
